<svg width="116" height="48" viewBox="0 0 116 48" fill="none" xmlns="http://www.w3.org/2000/svg">
<g filter="url(#filter0_d_3_20)">
<circle cx="24" cy="20" r="20" fill="#FF7235"/>
<circle cx="24" cy="20" r="19.5" stroke="black"/>
</g>
<path d="M22.176 26H18.384L22.728 19.904L18.648 13.832H22.536L24.504 17.456L26.688 13.832H30.528L26.16 19.928L30.216 26H26.4L24.36 22.352L22.176 26Z" fill="white"/>
<path d="M59.841 29.462H57.587V13.339H59.841V15.133C60.6383 13.8297 61.8343 13.178 63.429 13.178C64.9623 13.178 66.1737 13.7377 67.063 14.857C67.9523 15.961 68.397 17.3717 68.397 19.089C68.397 20.8523 67.937 22.309 67.017 23.459C66.1123 24.5937 64.901 25.161 63.383 25.161C61.8343 25.161 60.6537 24.517 59.841 23.229V29.462ZM59.841 19.135C59.841 20.4843 60.1553 21.4963 60.784 22.171C61.428 22.8457 62.1563 23.183 62.969 23.183C63.8737 23.183 64.6173 22.8303 65.2 22.125C65.7827 21.4043 66.074 20.4 66.074 19.112C66.074 17.9007 65.7903 16.9423 65.223 16.237C64.6557 15.5163 63.935 15.156 63.061 15.156C62.187 15.156 61.428 15.478 60.784 16.122C60.1553 16.7507 59.841 17.755 59.841 19.135ZM79.6228 24.379C78.7641 24.8697 77.6295 25.115 76.2188 25.115C74.4095 25.115 72.9681 24.5707 71.8948 23.482C70.8215 22.3933 70.2848 20.9673 70.2848 19.204C70.2848 17.3333 70.7755 15.869 71.7568 14.811C72.7381 13.7377 73.9878 13.201 75.5058 13.201C76.9931 13.201 78.1738 13.6687 79.0478 14.604C79.9218 15.524 80.3588 16.858 80.3588 18.606C80.3588 19.0813 80.3128 19.5797 80.2208 20.101H72.5618C72.7151 21.113 73.1445 21.8873 73.8498 22.424C74.5551 22.9607 75.4445 23.229 76.5178 23.229C77.7598 23.229 78.7948 22.9377 79.6228 22.355V24.379ZM75.5518 15.064C74.7851 15.064 74.1258 15.3477 73.5738 15.915C73.0218 16.467 72.6768 17.272 72.5388 18.33H78.1738V17.916C78.1431 17.042 77.9055 16.352 77.4608 15.846C77.0161 15.3247 76.3798 15.064 75.5518 15.064ZM92.6498 25H90.3958V17.64C90.3958 16.8273 90.1888 16.2063 89.7748 15.777C89.3761 15.3477 88.8394 15.133 88.1648 15.133C87.3674 15.133 86.6851 15.4473 86.1178 16.076C85.5504 16.6893 85.2668 17.5557 85.2668 18.675V25H83.0128V13.339H85.2668V15.34C85.9568 13.8987 87.1681 13.178 88.9008 13.178C90.0508 13.178 90.9631 13.5307 91.6378 14.236C92.3124 14.9413 92.6498 15.8997 92.6498 17.111V25ZM102.972 21.78C102.972 22.8227 102.604 23.643 101.868 24.241C101.132 24.8237 100.135 25.115 98.8778 25.115C97.4978 25.115 96.3478 24.885 95.4278 24.425V22.286C96.5011 22.9453 97.6128 23.275 98.7628 23.275C99.3608 23.275 99.8208 23.1523 100.143 22.907C100.48 22.6617 100.649 22.3397 100.649 21.941C100.649 21.6037 100.518 21.3047 100.258 21.044C99.9971 20.768 99.7288 20.5687 99.4528 20.446C99.1921 20.308 98.7398 20.101 98.0958 19.825C96.2711 19.0737 95.3588 17.9697 95.3588 16.513C95.3588 15.4857 95.7421 14.6807 96.5088 14.098C97.2754 13.5153 98.2338 13.224 99.3838 13.224C100.641 13.224 101.622 13.3927 102.328 13.73V15.777C101.576 15.3323 100.61 15.11 99.4298 15.11C98.8931 15.11 98.4638 15.2327 98.1418 15.478C97.8351 15.7233 97.6818 16.0453 97.6818 16.444C97.6818 16.5513 97.6894 16.6587 97.7048 16.766C97.7354 16.858 97.7814 16.9577 97.8428 17.065C97.9041 17.157 97.9578 17.2413 98.0038 17.318C98.0651 17.3793 98.1571 17.4483 98.2798 17.525C98.4024 17.6017 98.4944 17.6707 98.5558 17.732C98.6324 17.778 98.7474 17.8393 98.9008 17.916C99.0694 17.9927 99.1921 18.054 99.2688 18.1C99.3454 18.1307 99.4758 18.192 99.6598 18.284C99.8591 18.3607 99.9971 18.4143 100.074 18.445C100.978 18.8437 101.684 19.296 102.19 19.802C102.711 20.2927 102.972 20.952 102.972 21.78ZM114.01 24.379C113.152 24.8697 112.017 25.115 110.606 25.115C108.797 25.115 107.356 24.5707 106.282 23.482C105.209 22.3933 104.672 20.9673 104.672 19.204C104.672 17.3333 105.163 15.869 106.144 14.811C107.126 13.7377 108.375 13.201 109.893 13.201C111.381 13.201 112.561 13.6687 113.435 14.604C114.309 15.524 114.746 16.858 114.746 18.606C114.746 19.0813 114.7 19.5797 114.608 20.101H106.949C107.103 21.113 107.532 21.8873 108.237 22.424C108.943 22.9607 109.832 23.229 110.905 23.229C112.147 23.229 113.182 22.9377 114.01 22.355V24.379ZM109.939 15.064C109.173 15.064 108.513 15.3477 107.961 15.915C107.409 16.467 107.064 17.272 106.926 18.33H112.561V17.916C112.531 17.042 112.293 16.352 111.848 15.846C111.404 15.3247 110.767 15.064 109.939 15.064Z" fill="#292830"/>
<defs>
<filter id="filter0_d_3_20" x="0" y="0" width="48" height="48" filterUnits="userSpaceOnUse" color-interpolation-filters="sRGB">
<feFlood flood-opacity="0" result="BackgroundImageFix"/>
<feColorMatrix in="SourceAlpha" type="matrix" values="0 0 0 0 0 0 0 0 0 0 0 0 0 0 0 0 0 0 127 0" result="hardAlpha"/>
<feOffset dy="4"/>
<feGaussianBlur stdDeviation="2"/>
<feComposite in2="hardAlpha" operator="out"/>
<feColorMatrix type="matrix" values="0 0 0 0 0 0 0 0 0 0 0 0 0 0 0 0 0 0 0.25 0"/>
<feBlend mode="normal" in2="BackgroundImageFix" result="effect1_dropShadow_3_20"/>
<feBlend mode="normal" in="SourceGraphic" in2="effect1_dropShadow_3_20" result="shape"/>
</filter>
</defs>
</svg>
